<?xml version="1.0" encoding="UTF-8" standalone="no"?>
<!-- Uploaded to: SVG Repo, www.svgrepo.com, Generator: SVG Repo Mixer Tools -->

<svg
   width="582.07001"
   height="654.29755"
   viewBox="0 0 17.4621 19.628926"
   version="1.1"
   id="svg247"
   sodipodi:docname="github.svg"
   inkscape:version="1.2.2 (b0a8486541, 2022-12-01)"
   xmlns:inkscape="http://www.inkscape.org/namespaces/inkscape"
   xmlns:sodipodi="http://sodipodi.sourceforge.net/DTD/sodipodi-0.dtd"
   xmlns="http://www.w3.org/2000/svg"
   xmlns:svg="http://www.w3.org/2000/svg">
  <defs
     id="defs251" />
  <sodipodi:namedview
     id="namedview249"
     pagecolor="#ffffff"
     bordercolor="#666666"
     borderopacity="1.0"
     inkscape:showpageshadow="2"
     inkscape:pageopacity="0.0"
     inkscape:pagecheckerboard="0"
     inkscape:deskcolor="#d1d1d1"
     showgrid="false"
     inkscape:zoom="1.1375"
     inkscape:cx="235.16484"
     inkscape:cy="316.92308"
     inkscape:window-width="2560"
     inkscape:window-height="1374"
     inkscape:window-x="1050"
     inkscape:window-y="43"
     inkscape:window-maximized="1"
     inkscape:current-layer="svg247" />
  <path
     fill="none"
     d="M -2.8378993,-2.4977796 H 21.162101 V 21.50222 H -2.8378993 Z"
     id="path241" />
  <path
     fill-rule="nonzero"
     d="m 3.0451007,16.15522 c -0.3,-0.2 -0.558,-0.455 -0.86,-0.816 a 50.32,50.32 0 0 1 -0.466,-0.579 c -0.463,-0.575 -0.75499997,-0.84 -1.05699997,-0.949 a 1.0003331,1.0003331 0 0 1 0.67599997,-1.883 c 0.752,0.27 1.261,0.735 1.947,1.588 -0.094,-0.117 0.34,0.427 0.433,0.539 0.19,0.227 0.33,0.365 0.44,0.438 0.204,0.137 0.587,0.196 1.15,0.14 0.023,-0.382 0.094,-0.753 0.202,-1.095 -2.968,-0.726 -4.64799997,-2.64 -4.64799997,-6.3959996 0,-1.24 0.36999997,-2.356 1.05799997,-3.292 -0.218,-0.894 -0.185,-1.975 0.302,-3.19200004 a 1,1 0 0 1 0.63,-0.582 c 0.081,-0.024 0.127,-0.035 0.208,-0.047 0.803,-0.123 1.937,0.17 3.415,1.09600004 a 11.731,11.731 0 0 1 2.687,-0.30800004 c 0.9120003,0 1.8180003,0.104 2.6840003,0.30800004 1.477,-0.93300004 2.613,-1.22600004 3.422,-1.09600004 0.085,0.013 0.157,0.03 0.218,0.05 a 1,1 0 0 1 0.616,0.58 c 0.487,1.21600004 0.52,2.29700004 0.302,3.19000004 0.691,0.936 1.058,2.045 1.058,3.293 0,3.7569996 -1.674,5.6649996 -4.642,6.3919996 0.125,0.415 0.19,0.879 0.19,1.38 a 300.492,300.492 0 0 1 -0.012,2.716 1,1 0 0 1 -0.019,1.958 c -1.139,0.228 -1.983,-0.532 -1.983,-1.525 l 0.002,-0.446 0.005,-0.705 c 0.005,-0.708 0.007,-1.338 0.007,-1.998 0,-0.697 -0.183,-1.152 -0.425,-1.36 -0.6610003,-0.57 -0.326,-1.655 0.54,-1.752 2.967,-0.333 4.337,-1.482 4.337,-4.6599996 0,-0.955 -0.312,-1.744 -0.913,-2.404 a 1,1 0 0 1 -0.19,-1.045 c 0.166,-0.414 0.237,-0.957 0.096,-1.614 l -0.01,0.003 c -0.491,0.139 -1.11,0.44 -1.858,0.949 a 1,1 0 0 1 -0.833,0.135 9.626,9.626 0 0 0 -2.5920003,-0.349 c -0.89,0 -1.772,0.119 -2.592,0.35 a 1,1 0 0 1 -0.83,-0.134 c -0.752,-0.507 -1.374,-0.807 -1.868,-0.947 -0.144,0.653 -0.073,1.194 0.092,1.607 a 1,1 0 0 1 -0.189,1.045 c -0.597,0.654 -0.913,1.458 -0.913,2.404 0,3.1719996 1.371,4.3279996 4.322,4.6599996 0.865,0.097 1.201,1.177 0.544,1.748 -0.192,0.168 -0.429,0.732 -0.429,1.364 v 3.15 c 0,0.986 -0.835,1.725 -1.96,1.528 a 1,1 0 0 1 -0.04,-1.962 v -0.99 c -0.91,0.061 -1.662,-0.088 -2.254,-0.485 z"
     id="path243" />
</svg>
