<?xml version="1.0" encoding="UTF-8" standalone="no"?>
<svg
   version="1.1"
   width="216"
   height="210"
   id="svg8"
   sodipodi:docname="logo.svg"
   inkscape:version="1.2.2 (b0a8486541, 2022-12-01)"
   xmlns:inkscape="http://www.inkscape.org/namespaces/inkscape"
   xmlns:sodipodi="http://sodipodi.sourceforge.net/DTD/sodipodi-0.dtd"
   xmlns="http://www.w3.org/2000/svg"
   xmlns:svg="http://www.w3.org/2000/svg">
  <defs
     id="defs12" />
  <sodipodi:namedview
     id="namedview10"
     pagecolor="#ffffff"
     bordercolor="#666666"
     borderopacity="1.0"
     inkscape:showpageshadow="2"
     inkscape:pageopacity="0.0"
     inkscape:pagecheckerboard="0"
     inkscape:deskcolor="#d1d1d1"
     showgrid="false"
     inkscape:zoom="2"
     inkscape:cx="-79.25"
     inkscape:cy="98.75"
     inkscape:window-width="2560"
     inkscape:window-height="1374"
     inkscape:window-x="1050"
     inkscape:window-y="43"
     inkscape:window-maximized="1"
     inkscape:current-layer="svg8"
     showguides="true">
    <sodipodi:guide
       position="173.77149,85.637595"
       orientation="0,-1"
       id="guide18477"
       inkscape:locked="false" />
    <sodipodi:guide
       position="140.31083,100.05875"
       orientation="0,-1"
       id="guide18515"
       inkscape:locked="false" />
    <sodipodi:guide
       position="170.05918,175.70532"
       orientation="1,0"
       id="guide19099"
       inkscape:locked="false" />
    <sodipodi:guide
       position="174.25,165.5"
       orientation="0,-1"
       id="guide19101"
       inkscape:locked="false" />
    <sodipodi:guide
       position="177.9375,141.375"
       orientation="0,-1"
       id="guide19103"
       inkscape:locked="false" />
  </sodipodi:namedview>
  <path
     d="m 0,0 c 45.810965,-0.35810826 94.923757,0.0063289 136.34265,-0.34310913 13.37324,-0.11765352 23.76254,2.44413413 33.89049,11.55278013 6.58664,6.747288 9.54834,15.787504 9.58467,25.039078 0.33391,44.322757 -0.0675,87.854841 0.34311,131.034681 0.12146,13.25853 -2.56725,23.43518 -11.55278,33.42624 -6.83396,6.67125 -15.91635,9.54939 -25.26686,9.58467 -46.118238,0.3337 -91.413428,-0.0672 -136.3426495,0.34311 -13.373243,0.11765 -23.7625445,-2.44413 -33.8904915,-11.55278 -6.586638,-6.74729 -9.548338,-15.7875 -9.584671,-25.03908 -0.333907,-44.32275 0.06752,-87.854838 -0.343109,-131.03468 -0.121464,-13.258527 2.567244,-23.435179 11.55278,-33.426239 C -18.432898,2.9134214 -9.3505097,0.03528647 0,0 Z"
     fill="#751cf7"
     transform="translate(36.329361,-0.14717102)"
     id="path2"
     sodipodi:nodetypes="ccccccccccccc"
     inkscape:label="squircle" />
  <path
     d="m 0,0 c 33.488302,-0.01740646 66.114882,-0.01972116 99.312838,0.02667662 3.753872,-0.07941045 4.315892,1.73719638 5.088712,3.37752348 1.30236,2.5309437 -1.65381,16.5909069 -6.906641,19.1128319 -3.184208,1.06902 -3.059718,0.920361 -8.726029,1.3075 -26.23993,0.06903 -50.077016,0.436026 -75.559966,0.420204 -6.8637889,0.114151 -6.8623431,0.118518 -6.9184267,1.143448 -0.1467545,3.64479 -0.1249691,6.48576 -0.13281,10.09375 -0.043895,3.571695 -0.0031,3.901283 1.1328125,3.90625 26.5269272,0.323881 55.8854932,0.62058 80.7434542,0.574399 5.691697,0.08546 9.948586,1.088036 14.104306,5.297089 1.38856,2.56508 1.5503,4.274628 1.58803,7.184921 0.2059,13.094839 0.0716,25.241678 0.32092,37.703964 -0.0666,7.273755 -0.0666,7.273755 -2.03362,10.026773 -4.373664,4.9503 -9.973516,4.35388 -16.325405,4.32639 -27.352412,-0.0374 -51.629574,-0.0171 -77.9184768,-0.0688 -4.3010687,0.12532 -4.5783158,-0.24745 -7.31325162,6.27822 -1.79042908,3.83228 -3.84356778,8.52034 -4.97369008,9.73684 -3.1302407,3.17853 -4.3399549,3.09452 -7.1648635,3.17122 -4.512651,-0.0276 -7.904382,-2.32077 -9.301669,-4.27287 -1.906167,-2.96824 -2.568835,-6.57622 0.208557,-13.14017 2.076454,-4.56142 4.228382,-10.692954 6.979751,-15.856656 5.3698634,-10.598915 3.571976,-10.598915 14.9372228,-10.598915 7.6361863,-0.133431 46.6277532,-0.0605 69.5913412,0.05249 2.359573,0.0029 6.479416,0.359002 7.133553,-0.387783 0.800052,-0.513259 0.623483,-6.47323 0.59179,-10.847035 -0.05398,-2.108674 -0.391105,-2.333634 -0.499056,-2.478407 C 77.139808,65.070206 73.57841,65.32307 69.776953,65.282022 54.529612,65.117381 18.090919,64.759147 -3.2041428,64.938604 -8.7068713,64.845704 -13.542473,65.329434 -17.709473,60.388184 -19.63675,57.84397 -19.965457,56.515146 -20,52.951904 -20.138004,41.240302 -20.0463,30.375624 -20.21392,19.231033 -20.17409,13.330079 -19.278128,7.2234534 -15.709473,3.3881836 -12.115089,-0.16814978 -5.8331927,-0.03489136 0,0 Z"
     fill="#fdfdfe"
     transform="translate(65.709473,44.611816)"
     id="path4"
     sodipodi:nodetypes="cccccccccccccccccccccccccccscccccc"
     inkscape:label="logo" />
</svg>
