<?xml version="1.0" encoding="UTF-8" standalone="no"?>
<svg
   version="1.1"
   width="216"
   height="210"
   id="svg8"
   sodipodi:docname="logo.svg"
   inkscape:version="1.2.2 (b0a8486541, 2022-12-01)"
   xmlns:inkscape="http://www.inkscape.org/namespaces/inkscape"
   xmlns:sodipodi="http://sodipodi.sourceforge.net/DTD/sodipodi-0.dtd"
   xmlns="http://www.w3.org/2000/svg"
   xmlns:svg="http://www.w3.org/2000/svg">
  <defs
     id="defs12" />
  <sodipodi:namedview
     id="namedview10"
     pagecolor="#ffffff"
     bordercolor="#666666"
     borderopacity="1.0"
     inkscape:showpageshadow="2"
     inkscape:pageopacity="0.0"
     inkscape:pagecheckerboard="0"
     inkscape:deskcolor="#d1d1d1"
     showgrid="false"
     inkscape:zoom="4"
     inkscape:cx="42.875"
     inkscape:cy="85.125"
     inkscape:window-width="2560"
     inkscape:window-height="1374"
     inkscape:window-x="1050"
     inkscape:window-y="43"
     inkscape:window-maximized="1"
     inkscape:current-layer="svg8"
     showguides="true">
    <sodipodi:guide
       position="173.77149,85.637595"
       orientation="0,-1"
       id="guide18477"
       inkscape:locked="false" />
    <sodipodi:guide
       position="140.31083,100.05875"
       orientation="0,-1"
       id="guide18515"
       inkscape:locked="false" />
    <sodipodi:guide
       position="170.05918,175.70532"
       orientation="1,0"
       id="guide19099"
       inkscape:locked="false" />
    <sodipodi:guide
       position="174.25,165.5"
       orientation="0,-1"
       id="guide19101"
       inkscape:locked="false" />
    <sodipodi:guide
       position="177.9375,141.375"
       orientation="0,-1"
       id="guide19103"
       inkscape:locked="false" />
    <sodipodi:guide
       position="170.05918,251.75"
       orientation="0,-1"
       id="guide19135"
       inkscape:locked="false" />
  </sodipodi:namedview>
  <path
     d="m 0,0 c 45.810965,-0.35810826 94.923757,0.0063289 136.34265,-0.34310913 13.37324,-0.11765352 23.76254,2.44413413 33.89049,11.55278013 6.58664,6.747288 9.54834,15.787504 9.58467,25.039078 0.33391,44.322757 -0.0675,87.854841 0.34311,131.034681 0.12146,13.25853 -2.56725,23.43518 -11.55278,33.42624 -6.83396,6.67125 -15.91635,9.54939 -25.26686,9.58467 -46.118238,0.3337 -91.413428,-0.0672 -136.3426495,0.34311 -13.373243,0.11765 -23.7625445,-2.44413 -33.8904915,-11.55278 -6.586638,-6.74729 -9.548338,-15.7875 -9.584671,-25.03908 -0.333907,-44.32275 0.06752,-87.854838 -0.343109,-131.03468 -0.121464,-13.258527 2.567244,-23.435179 11.55278,-33.426239 C -18.432898,2.9134214 -9.3505097,0.03528647 0,0 Z"
     fill="#751cf7"
     transform="translate(36.329361,-0.14717102)"
     id="path2"
     sodipodi:nodetypes="ccccccccccccc"
     inkscape:label="squircle" />
  <path
     d="m 66.966123,45.196145 c 33.488307,-0.01741 66.114887,-0.01972 99.312837,0.02668 3.75387,-0.07941 4.31589,1.737196 5.08871,3.377523 1.30236,2.530944 -1.65381,16.590907 -6.90664,19.112832 -3.18421,1.06902 -3.05972,0.920361 -8.72603,1.3075 -26.23993,0.06903 -50.07701,0.436026 -75.559963,0.420204 -6.863789,0.114148 -6.862343,0.118515 -6.918427,1.143445 -0.146754,3.64479 -0.124969,6.48576 -0.13281,10.09375 -0.0439,3.571695 -0.0031,3.901283 1.132813,3.90625 26.526927,0.323881 55.885497,0.62058 80.743457,0.574399 5.69169,0.08546 9.94858,1.088036 14.1043,5.297089 1.38856,2.56508 1.5503,4.274628 1.58803,7.184921 0.2059,13.094842 0.0716,25.241682 0.32092,37.703962 -0.0666,7.27376 -0.0666,7.27376 -2.03362,10.02678 -4.37366,4.9503 -9.97351,4.35388 -16.3254,4.32639 -27.35241,-0.0374 -51.62958,-0.0171 -77.918479,-0.0688 -4.301068,0.12532 -4.578316,-0.24745 -7.313251,6.27822 -1.790429,3.83228 -3.843568,8.52034 -4.97369,9.73684 -3.130241,3.17853 -4.339955,3.09452 -7.164864,3.17122 -4.512651,-0.0276 -7.904382,-2.32077 -9.301669,-4.27287 -1.906167,-2.96824 -2.568835,-6.57622 0.208557,-13.14017 2.076454,-4.56142 4.228382,-10.69296 6.979751,-15.85666 5.369863,-10.59891 3.571976,-10.59891 14.937223,-10.59891 7.636186,-0.13344 46.627752,-0.0605 69.591342,0.0525 2.35957,0.003 6.47942,0.359 7.13355,-0.38779 0.80005,-0.51326 0.62349,-6.47323 0.59179,-10.84703 -0.054,-2.10868 -0.3911,-2.33364 -0.49905,-2.47841 -0.81958,-1.01965 -4.38098,-0.76678 -8.18243,-0.80783 -15.24734,-0.16464 -51.686038,-0.52288 -72.9811,-0.34342 -5.502728,-0.0929 -10.33833,0.39082 -14.50533,-4.55043 -1.927277,-2.54421 -2.255984,-3.87304 -2.290527,-7.43628 -0.138004,-11.711603 -0.0463,-22.576281 -0.21392,-33.720872 0.03983,-5.900954 0.935792,-12.00758 4.504447,-15.842849 3.594384,-3.556334 9.87628,-3.423075 15.709473,-3.388184 z"
     fill="#fdfdfe"
     id="path4"
     sodipodi:nodetypes="cccccccccccccccccccccccccccscccccc"
     inkscape:label="logo" />
</svg>
