<?xml version="1.0" encoding="UTF-8" standalone="no"?>
<svg
   version="1.1"
   width="216"
   height="210"
   id="svg8"
   sodipodi:docname="logo.svg"
   inkscape:version="1.2.2 (b0a8486541, 2022-12-01)"
   xmlns:inkscape="http://www.inkscape.org/namespaces/inkscape"
   xmlns:sodipodi="http://sodipodi.sourceforge.net/DTD/sodipodi-0.dtd"
   xmlns="http://www.w3.org/2000/svg"
   xmlns:svg="http://www.w3.org/2000/svg">
  <defs
     id="defs12" />
  <sodipodi:namedview
     id="namedview10"
     pagecolor="#ffffff"
     bordercolor="#666666"
     borderopacity="1.0"
     inkscape:showpageshadow="2"
     inkscape:pageopacity="0.0"
     inkscape:pagecheckerboard="0"
     inkscape:deskcolor="#d1d1d1"
     showgrid="false"
     inkscape:zoom="4"
     inkscape:cx="116.625"
     inkscape:cy="117.375"
     inkscape:window-width="2560"
     inkscape:window-height="1374"
     inkscape:window-x="1050"
     inkscape:window-y="43"
     inkscape:window-maximized="1"
     inkscape:current-layer="svg8" />
  <path
     d="M0 0 C1.30220993 -0.0071553 2.60441986 -0.01431061 3.9460907 -0.02168274 C5.38755774 -0.02452287 6.82902505 -0.02723462 8.27049255 -0.02983093 C9.7901627 -0.03609829 11.30983133 -0.04274533 12.82949829 -0.04974365 C17.81950316 -0.07075991 22.80950823 -0.08114605 27.79954529 -0.09111023 C29.52043613 -0.09515916 31.24132681 -0.09927612 32.96221733 -0.10346031 C41.05081943 -0.12250926 49.13941244 -0.13673904 57.22803265 -0.14507228 C66.54808343 -0.15483389 75.86789603 -0.18112644 85.18786293 -0.22157317 C92.40164591 -0.25179885 99.61536089 -0.26654739 106.82920593 -0.26985329 C111.13268004 -0.27219707 115.43589963 -0.28106895 119.7393055 -0.30631447 C123.79332788 -0.32971249 127.8469303 -0.33378176 131.90100288 -0.32355309 C133.38156538 -0.3230604 134.86214937 -0.32930137 136.34264755 -0.34310913 C149.71589052 -0.46076265 160.10519212 2.10102497 170.23313904 11.20967102 C176.81977683 17.95695851 179.78147735 26.99717476 179.81781006 36.24874878 C179.82854301 38.12633629 179.82854301 38.12633629 179.8394928 40.04185486 C179.84233291 41.42665075 179.84504466 42.81144691 179.84764099 44.19624329 C179.85390866 45.65680095 179.86055573 47.11735703 179.86755371 48.57791138 C179.88856673 53.37312211 179.89895598 58.16833305 179.90892029 62.96357727 C179.91296938 64.6176041 179.91708635 66.27163077 179.92127037 67.92565727 C179.94031882 75.7003049 179.95454855 83.47494306 179.96288234 91.24960953 C179.97264296 100.20630142 179.99893309 109.16274541 180.03938323 118.11935002 C180.06961518 125.05288061 180.08435805 131.98634045 180.08766335 138.91993564 C180.09000647 143.0557401 180.09886956 147.19127963 180.12412453 151.32701302 C180.14753355 155.2234514 180.15158753 159.11945285 180.14136314 163.01594353 C180.14087071 164.43845454 180.14710391 165.860988 180.16091919 167.28343201 C180.28238342 180.54195869 177.59367484 190.71861097 168.60813904 200.70967102 C161.77417601 207.38092064 152.69178774 210.25905557 143.34127808 210.29434204 C142.03906815 210.30149734 140.73685822 210.30865265 139.39518738 210.31602478 C137.95372033 210.31886491 136.51225303 210.32157666 135.07078552 210.32417297 C133.55111537 210.33044033 132.03144675 210.33708737 130.51177979 210.34408569 C125.52177492 210.36510195 120.53176985 210.37548809 115.54173279 210.38545227 C113.82084195 210.3895012 112.09995126 210.39361817 110.37906075 210.39780235 C102.29045865 210.4168513 94.20186564 210.43108108 86.11324543 210.43941432 C76.79319465 210.44917593 67.47338205 210.47546848 58.15341514 210.51591522 C50.93963216 210.54614089 43.72591719 210.56088943 36.51207215 210.56419533 C32.20859803 210.56653911 27.90537845 210.575411 23.60197258 210.60065651 C19.54795019 210.62405453 15.49434778 210.6281238 11.44027519 210.61789513 C9.9597127 210.61740244 8.47912871 210.62364341 6.99863052 210.63745117 C-6.37461245 210.75510469 -16.76391404 208.19331707 -26.89186096 199.08467102 C-33.47849875 192.33738353 -36.44019928 183.29716728 -36.47653198 174.04559326 C-36.48368729 172.79386826 -36.49084259 171.54214325 -36.49821472 170.25248718 C-36.50105483 168.86769129 -36.50376658 167.48289513 -36.50636292 166.09809875 C-36.51263058 164.63754109 -36.51927765 163.17698501 -36.52627563 161.71643066 C-36.54728866 156.92121993 -36.55767791 152.12600899 -36.56764221 147.33076477 C-36.5716913 145.67673794 -36.57580827 144.02271127 -36.57999229 142.36868477 C-36.59904075 134.59403715 -36.61327048 126.81939898 -36.62160426 119.04473251 C-36.63136489 110.08804062 -36.65765501 101.13159663 -36.69810516 92.17499202 C-36.7283371 85.24146143 -36.74307997 78.30800159 -36.74638528 71.3744064 C-36.74872839 67.23860194 -36.75759148 63.10306241 -36.78284645 58.96732903 C-36.80625548 55.07089064 -36.81030945 51.17488919 -36.80008507 47.27839851 C-36.79959264 45.8558875 -36.80582584 44.43335404 -36.81964111 43.01091003 C-36.94110534 29.75238335 -34.25239677 19.57573107 -25.26686096 9.58467102 C-18.43289794 2.9134214 -9.35050966 0.03528647 0 0 Z "
     fill="#751CF7"
     transform="translate(36.32936096191406,-0.1471710205078125)"
     id="path2" />
  <path
     d="m 0,0 c 33.488302,-0.01740646 65.003864,-0.03573761 98.201822,0.01066017 2.640138,0.47719193 3.518408,1.22474673 5.088708,3.37752343 0.38727,5.7623184 1.51045,13.6176814 -1.47583,18.2034454 -3.638753,2.589804 -7.103404,2.360238 -11.407758,2.326584 -26.23993,0.06903 -51.715078,0.342345 -77.198028,0.326523 -6.8637889,0.114151 -6.8623431,0.118518 -6.9184267,1.143448 -0.1467545,3.64479 -0.1249691,6.48576 -0.13281,10.09375 -0.043895,3.571695 -0.0031,3.901283 1.1328125,3.90625 26.5269272,0.323881 55.8854932,0.62058 80.7434542,0.574399 5.691697,0.08546 9.948586,1.088036 14.104306,5.297089 1.38856,2.56508 1.5503,4.274628 1.58803,7.184921 0.2059,13.094839 0.0716,25.241678 0.32092,37.703964 -0.0666,7.273755 -0.0666,7.273755 -2.03362,10.026773 -5.067372,4.39506 -9.973516,4.35388 -16.325405,4.32639 -27.352412,-0.0374 -55.108803,-0.0615 -81.3977052,-0.11316 l -0.9238281,2.8584 c -1.9153304,5.3508 -5.3117026,10.37619 -8.0761719,13.1416 -2.9933896,0.34928 -3.7181743,0.24561 -6.7109378,0.26563 -3.667896,-0.42563 -5.700968,-1.55151 -8.039062,-4.39063 -2.091464,-4.81036 -2.005286,-8.78878 -0.246094,-13.64795 2.076454,-4.561417 3.810859,-7.95029 5.910156,-12.266106 3.756377,-7.631377 3.756377,-7.631377 6.0859378,-9.960937 26.0699092,-0.656855 55.4790382,-0.698478 78.4426262,-0.585491 2.359573,0.0029 6.479416,0.359002 7.133553,-0.387783 0.800052,-0.513259 0.623483,-6.47323 0.59179,-10.847035 C 78.53,66.411205 78.53,66.411205 77.29047,65.388571 50.077345,65.214445 23.400191,64.714405 -3.2041428,64.938604 -8.7068713,64.845704 -13.16323,63.587574 -17.709473,60.388184 -19.794343,57.260878 -19.965457,56.515146 -20,52.951904 -20.138004,41.240302 -20.0463,30.375624 -20.21392,19.231033 -20.17409,13.330079 -19.5287,8.1100653 -15.709473,3.3881836 -11.039968,-0.62379599 -5.8331927,-0.03489136 0,0 Z"
     fill="#fdfdfe"
     transform="translate(65.709473,44.611816)"
     id="path4"
     sodipodi:nodetypes="ccccccccccccccccccccccccccccccccc" />
</svg>
